<?xml version="1.0" encoding="UTF-8"?>
<svg id="Ebene_1" xmlns="http://www.w3.org/2000/svg" version="1.1" viewBox="0 0 455.8 85.8">
  <!-- Generator: Adobe Illustrator 29.7.0, SVG Export Plug-In . SVG Version: 2.1.1 Build 138)  -->
  <defs>
    <style>
      .st0 {
        fill: #009b91;
      }
    </style>
  </defs>
  <polygon class="st0" points="197.3 43.7 200.1 23.4 190.6 23.4 187.8 43.7 197.3 43.7"/>
  <path class="st0" d="M86.6,13.3l367.4-.1,1.8-13.2H48.1C20.7,0,0,19,0,42.4s20.7,42.4,48.1,42.4h26.3l1.4-10.2c-15-2.1-26.2-18-23.9-34.2,2.2-15.4,16.3-27.1,34.7-27.1Z"/>
  <path class="st0" d="M434.6,23.4h-27.6l-8.6,61.4h15.9l2.8-20.3h5.6l10,20.3h17.8l-11.3-22c7.9-2.8,13.5-9.2,14.8-18.5,1.9-13.4-6.2-20.9-19.4-20.9ZM438.3,44.3c-.7,4.5-3.7,7.4-9.4,7.4h-10l2.1-14.8h10c5.7,0,7.9,2.9,7.3,7.4Z"/>
  <polygon class="st0" points="317.7 23.4 301.6 23.4 293 84.8 334.2 84.8 336.1 70.9 311 70.9 317.7 23.4"/>
  <polygon class="st0" points="341.5 84.8 385.4 84.8 387.3 70.9 359.2 70.9 360.7 60.3 386.4 60.3 388.3 46.8 362.6 46.8 364 37.2 392.1 37.2 394 23.4 350.1 23.4 341.5 84.8"/>
  <path class="st0" d="M135.3,23.4h-26.3l-8.6,61.4h28.2c12.8,0,21.2-6.1,22.8-17.2,1-6.9-2.4-12.6-8-14.5,4.8-1.6,9.1-6.4,10.1-13,1.5-11-5.4-16.7-18.2-16.7ZM136.2,65.7c-.5,3.5-3.4,5.9-7.9,5.9h-10.8l1.7-11.9h10.8c4.5,0,6.7,2.3,6.2,6ZM138.1,42.1c-.5,3.8-3.3,5.6-8,5.6h-9.2l1.6-11.1h9.2c4.7,0,6.9,1.7,6.4,5.5Z"/>
  <polygon class="st0" points="269.2 46.7 247.9 46.7 251.2 23.4 235.1 23.4 226.5 84.8 242.6 84.8 246 60.5 267.3 60.5 263.9 84.8 280 84.8 288.6 23.4 272.5 23.4 269.2 46.7"/>
  <path class="st0" d="M201.2,58.3c-1.2,8.7-5.9,13.2-12.5,13.2s-10.2-4.5-9-13.2l4.9-34.9h-16l-5.1,36.3c-2.4,16.9,6.9,26.1,23.1,26.1s28-9.2,30.4-26l5.1-36.4h-16l-4.9,34.9Z"/>
</svg>